<?xml version="1.0" encoding="UTF-8" standalone="no"?>
<svg
   xmlns:dc="http://purl.org/dc/elements/1.1/"
   xmlns:cc="http://creativecommons.org/ns#"
   xmlns:rdf="http://www.w3.org/1999/02/22-rdf-syntax-ns#"
   xmlns:svg="http://www.w3.org/2000/svg"
   xmlns="http://www.w3.org/2000/svg"
   xmlns:sodipodi="http://sodipodi.sourceforge.net/DTD/sodipodi-0.dtd"
   xmlns:inkscape="http://www.inkscape.org/namespaces/inkscape"
   width="71.693665mm"
   height="42.597919mm"
   viewBox="0 0 71.693665 42.597919"
   version="1.1"
   id="svg18"
   inkscape:version="1.0 (4035a4f, 2020-05-01)"
   sodipodi:docname="logo.svg">
  <defs
     id="defs12" />
  <sodipodi:namedview
     fit-margin-bottom="0"
     fit-margin-right="0"
     fit-margin-left="0"
     fit-margin-top="0"
     id="base"
     pagecolor="#ffffff"
     bordercolor="#666666"
     borderopacity="1.0"
     inkscape:pageopacity="0.0"
     inkscape:pageshadow="2"
     inkscape:zoom="2.0056769"
     inkscape:cx="168.89446"
     inkscape:cy="54.111774"
     inkscape:document-units="mm"
     inkscape:current-layer="layer1"
     inkscape:document-rotation="0"
     showgrid="false"
     showguides="false"
     inkscape:window-width="1252"
     inkscape:window-height="855"
     inkscape:window-x="188"
     inkscape:window-y="23"
     inkscape:window-maximized="0">
    <inkscape:grid
       originy="-47.492713"
       originx="-23.688636"
       type="xygrid"
       id="grid24" />
  </sodipodi:namedview>
  <metadata
     id="metadata15">
    <rdf:RDF>
      <cc:Work
         rdf:about="">
        <dc:format>image/svg+xml</dc:format>
        <dc:type
           rdf:resource="http://purl.org/dc/dcmitype/StillImage" />
        <dc:title></dc:title>
      </cc:Work>
    </rdf:RDF>
  </metadata>
  <g
     transform="translate(-23.688632,-47.492707)"
     inkscape:label="Layer 1"
     inkscape:groupmode="layer"
     id="layer1"
     style="display:inline">
    <path
       style="fill:none;stroke:#000000;stroke-width:0.254959px;stroke-linecap:butt;stroke-linejoin:miter;stroke-opacity:1"
       d="m 23.8125,47.624999 h 9.827381 l 7.370536,21.166668"
       id="path26" />
    <path
       id="path26-9"
       d="m 23.8125,89.958335 h 9.827381 l 7.370536,-21.166668"
       style="fill:none;stroke:#000000;stroke-width:0.254959px;stroke-linecap:butt;stroke-linejoin:miter;stroke-opacity:1" />
    <path
       style="fill:none;stroke:#000000;stroke-width:0.264583px;stroke-linecap:butt;stroke-linejoin:miter;stroke-opacity:1"
       d="M 23.8125,47.624999 31.75,68.791666 23.8125,89.958332"
       id="path43" />
    <path
       style="fill:none;stroke:#000000;stroke-width:0.264583px;stroke-linecap:butt;stroke-linejoin:miter;stroke-opacity:1"
       d="M 33.639881,89.958335 41.92752,70.228594"
       id="path96" />
    <path
       id="path96-6"
       d="M 33.639881,47.624999 41.92752,67.35474"
       style="fill:none;stroke:#000000;stroke-width:0.264583px;stroke-linecap:butt;stroke-linejoin:miter;stroke-opacity:1" />
    <path
       id="path26-5"
       d="M 60.04254,47.624998 H 50.215159 L 42.844623,68.791667"
       style="display:inline;fill:none;stroke:#000000;stroke-width:0.254959px;stroke-linecap:butt;stroke-linejoin:miter;stroke-opacity:1" />
    <path
       style="display:inline;fill:none;stroke:#000000;stroke-width:0.254959px;stroke-linecap:butt;stroke-linejoin:miter;stroke-opacity:1"
       d="M 60.04254,89.958334 H 50.215159 L 42.844623,68.791667"
       id="path26-9-2" />
    <path
       id="path43-3"
       d="m 60.04254,47.624998 -7.9375,21.166668 7.9375,21.166665"
       style="display:inline;fill:none;stroke:#000000;stroke-width:0.264583px;stroke-linecap:butt;stroke-linejoin:miter;stroke-opacity:1" />
    <path
       id="path96-0"
       d="M 50.215159,89.958334 41.92752,70.228594"
       style="display:inline;fill:none;stroke:#000000;stroke-width:0.264583px;stroke-linecap:butt;stroke-linejoin:miter;stroke-opacity:1" />
    <path
       style="display:inline;fill:none;stroke:#000000;stroke-width:0.264583px;stroke-linecap:butt;stroke-linejoin:miter;stroke-opacity:1"
       d="M 50.215159,47.624998 41.92752,67.35474"
       id="path96-6-6" />
    <path
       style="fill:#aa0000;stroke-width:0.280297"
       d="m 91.435945,338.05462 c 0.285216,-0.73227 6.988069,-18.59022 14.895225,-39.68432 l 14.37665,-38.35291 -14.86428,-39.63975 -14.864276,-39.63976 h 17.876556 17.87656 l 0.26554,0.77082 c 0.14605,0.42395 6.35291,18.2575 13.79302,39.63011 l 13.52747,38.8593 -13.82014,39.69396 -13.82014,39.69396 H 108.79775 90.917371 Z"
       id="path185"
       transform="scale(0.26458333)" />
    <path
       style="fill:#d40000;stroke-width:0.280297"
       d="m 176.43691,299.69136 -13.82215,-39.69467 13.33436,-38.298 c 7.3339,-21.06389 13.53767,-38.89712 13.78615,-39.6294 l 0.45179,-1.33141 h 17.87763 17.87762 l -14.85547,39.61628 -14.85548,39.61628 14.07912,37.5355 c 7.74351,20.64452 14.44107,38.51302 14.88346,39.70779 l 0.80435,2.1723 h -17.86961 -17.86961 z"
       id="path187"
       transform="scale(0.26458333)" />
    <path
       style="fill:#d40000;stroke-width:0.280297"
       d="m 91.189488,339.29303 c 0,-0.0534 6.681181,-17.91217 14.847072,-39.68605 l 14.84707,-39.58887 -14.6845,-39.14959 C 98.122658,199.33624 91.427619,181.49724 91.321266,181.2263 c -0.183417,-0.46727 0.719715,-0.48891 17.549024,-0.42045 l 17.74239,0.0722 12.82826,36.85907 c 7.05554,20.27248 13.25518,38.06768 13.77698,39.54488 l 0.94873,2.68582 -13.80092,39.63904 -13.80091,39.63904 -17.68767,0.0722 c -9.728213,0.0397 -17.687662,0.0284 -17.687662,-0.025 z"
       id="path189"
       transform="scale(0.26458333)" />
    <path
       style="fill:#ff0000;stroke-width:0.280297"
       d="m 190.2828,338.89551 c -1.2928,-3.30559 -27.3334,-78.58278 -27.32299,-78.98427 0.008,-0.30252 6.16757,-18.20874 13.68828,-39.79162 l 13.67402,-39.24159 17.73578,-0.0722 c 16.82301,-0.0685 17.72584,-0.0468 17.54242,0.42045 -0.10635,0.27094 -6.79745,18.09943 -14.86911,39.61887 l -14.67574,39.12625 14.66827,39.11202 c 8.06754,21.51161 14.75329,39.37989 14.8572,39.7073 l 0.18894,0.59529 h -17.64762 c -16.5473,0 -17.65957,-0.0306 -17.83945,-0.49052 z"
       id="path191"
       transform="scale(0.26458333)" />
    <path
       style="fill:#ff5555;stroke-width:0.280297"
       d="m 136.33629,315.94141 c -0.0104,-0.17607 4.33833,-12.83818 9.66393,-28.13802 l 9.6829,-27.81791 -9.70954,-27.8714 c -5.34025,-15.32927 -9.65429,-27.92665 -9.58676,-27.99418 0.0675,-0.0675 4.10822,9.37 8.97931,20.97229 13.7377,32.72136 12.46577,29.83576 13.12962,29.78686 0.49725,-0.0366 2.13403,-3.73822 11.25599,-25.45545 5.87077,-13.97693 10.72865,-25.35807 10.79529,-25.29143 0.0666,0.0666 -4.24755,12.66305 -9.5871,27.99201 l -9.70825,27.87086 9.54323,27.41123 c 5.24878,15.07618 9.50271,27.53281 9.45318,27.68139 -0.0495,0.14859 -4.82459,-11.00467 -10.61123,-24.78502 -9.62621,-22.92389 -10.57611,-25.05519 -11.16686,-25.05519 -0.59077,0 -1.536,2.12132 -11.11584,24.94644 -11.42387,27.21873 -10.99068,26.20641 -11.01787,25.74752 z"
       id="path193"
       transform="scale(0.26458333)" />
    <path
       id="path195"
       style="fill:#ff5555;stroke-width:0.0741619"
       d="m 51.25885,89.740564 c -0.652851,0.115414 -1.068848,-0.0959 -1.137335,-0.786577 -2.294302,-6.653405 -4.695587,-13.273095 -6.858428,-19.970004 0.117572,-1.538446 0.926938,-3.00606 1.345816,-4.50914 1.901476,-5.519682 3.828767,-11.030415 5.749655,-16.543358 3.092003,0.0254 6.197886,-0.119976 9.279234,0.05722 -2.58276,6.935951 -5.193276,13.861552 -7.79108,20.791889 2.624926,7.005074 5.246227,14.011513 7.874566,21.015304 -2.820818,-0.01492 -5.641842,-0.01348 -8.462428,-0.05533 z" />
    <path
       style="fill:#ff8080;stroke-width:0.280297"
       d="m 94.062533,339.16529 c -1.426012,-0.0443 -2.592748,-0.14266 -2.592748,-0.21853 0,-0.0759 6.640252,-17.86923 14.756115,-39.54081 l 14.75612,-39.40288 -14.76833,-39.3868 c -8.122584,-21.66274 -14.702921,-39.45221 -14.622975,-39.53216 0.225359,-0.22536 34.742375,-0.0738 34.950205,0.15344 0.1474,0.16118 21.19254,60.3923 26.23631,75.08827 l 1.26704,3.69174 -13.7418,39.47401 -13.74179,39.47402 -14.9527,0.14015 c -8.22398,0.0771 -16.119436,0.10388 -17.545447,0.0596 z"
       id="path197"
       transform="scale(0.26458333)" />
    <path
       style="fill:#fc5872;fill-opacity:1;stroke-width:0.280297"
       d="m 138.56822,310.05901 c -0.005,-0.17395 3.02993,-9.06638 6.74359,-19.76095 3.71367,-10.69456 7.6032,-21.90427 8.6434,-24.91046 l 1.89128,-5.46579 -4.02028,-11.49218 c -7.29818,-20.86223 -12.98652,-37.43676 -12.96642,-37.7812 0.0276,-0.4724 0.16606,-0.15199 9.36349,21.66411 9.16747,21.74503 9.59421,22.70407 10.10249,22.70407 0.75211,0 1.51311,-1.68465 12.18752,-26.97977 4.21266,-9.98273 7.71404,-18.09575 7.78086,-18.02893 0.0668,0.0668 -0.72279,2.55848 -1.75469,5.53704 -1.03189,2.97856 -4.89107,14.09326 -8.57593,24.69933 -3.68488,10.60607 -6.69977,19.50057 -6.69977,19.76556 0,0.265 1.27319,4.1376 2.8293,8.6058 9.49835,27.27331 13.98496,40.36886 13.90884,40.59722 -0.0477,0.1431 -2.7161,-5.96964 -5.92979,-13.58385 -11.28617,-26.74046 -12.71819,-30.0028 -13.33797,-30.38585 -0.80634,-0.49835 -1.10323,0.14701 -12.1876,26.49237 -7.56249,17.97457 -7.96294,18.89426 -7.97832,18.32348 z"
       id="path199"
       transform="scale(0.26458333)" />
    <path
       style="fill:#ff8080;fill-opacity:1;stroke-width:0.280297"
       d="m 139.68088,307.21678 c 0,-0.30198 3.97433,-11.89331 12.17963,-35.52249 l 4.08802,-11.77248 -2.64907,-7.56802 c -8.83675,-25.24539 -13.16903,-37.96264 -12.99255,-38.13912 0.0677,-0.0677 2.93118,6.53086 6.36333,14.66343 7.72499,18.3045 10.65862,25.08098 11.14714,25.74906 0.94049,1.2862 1.23309,0.68487 11.86341,-24.38036 3.91439,-9.22974 7.15764,-16.65963 7.20722,-16.51087 0.0496,0.14876 -2.42325,7.51116 -5.49519,16.3609 -10.34399,29.79922 -10.2736,29.57913 -9.90367,30.96225 0.17715,0.66234 3.6702,10.88639 7.76234,22.7201 4.09214,11.83371 7.40048,21.63514 7.35188,21.78095 -0.0486,0.14581 -1.71345,-3.56728 -3.69966,-8.25131 -12.36324,-29.15592 -13.67198,-32.06137 -14.44181,-32.06137 -0.78552,0 -1.78043,2.20409 -12.90553,28.59031 -3.11996,7.39984 -5.71829,13.50681 -5.77407,13.57105 -0.0558,0.0642 -0.10142,-0.0222 -0.10142,-0.19203 z"
       id="path1024"
       transform="scale(0.26458333)" />
    <path
       style="fill:#ff5555;fill-opacity:1;stroke-width:0.280297"
       d="m 207.24421,339.17583 c -9.0121,-0.0411 -16.479,-0.16823 -16.59311,-0.2826 -0.21803,-0.21853 -5.84777,-16.29392 -17.10403,-48.83948 -9.25717,-26.76556 -9.89223,-28.72514 -9.85599,-30.41224 0.022,-1.02372 1.16356,-4.688 4.23522,-13.59441 4.43412,-12.85692 22.02478,-63.42017 22.35502,-64.25811 0.18121,-0.45979 1.27994,-0.49052 17.54175,-0.49052 9.54163,0 17.34843,0.07 17.34843,0.15555 0,0.0855 -6.58019,17.71274 -14.62265,39.17152 -8.04245,21.45878 -14.60783,39.20517 -14.58972,39.43642 0.0181,0.23124 6.66136,18.11614 14.76279,39.74422 8.10143,21.62808 14.72987,39.3814 14.72987,39.45182 0,0.0704 -0.40993,0.0975 -0.91096,0.0603 -0.50103,-0.0373 -8.28451,-0.10137 -17.29662,-0.14243 z"
       id="path1026"
       transform="scale(0.26458333)" />
    <path
       style="fill:#ff5555;fill-opacity:1;stroke-width:0.280297"
       d="m 92.38075,338.9293 c -0.346867,-0.0786 -0.630668,-0.18079 -0.630668,-0.22716 0,-0.0464 4.236554,-11.42117 9.414568,-25.27732 5.17801,-13.85615 11.79018,-31.55068 14.69372,-39.32118 l 5.27917,-14.12817 -12.70207,-33.94278 c -17.883915,-47.78987 -16.727333,-44.556 -16.01408,-44.77635 0.808006,-0.24963 13.18666,-0.27597 24.61561,-0.0524 l 9.45013,0.18487 0.82404,2.40743 c 0.45322,1.32409 4.18433,11.99117 8.29136,23.70463 12.45277,35.5159 18.18898,52.11912 18.15925,52.56109 -0.027,0.40068 -27.1483,78.47006 -27.32029,78.64205 -0.15073,0.15073 -33.418458,0.37078 -34.06074,0.22529 z"
       id="path1028"
       transform="scale(0.26458333)" />
    <path
       style="fill:none;stroke:#000000;stroke-width:0.264583px;stroke-linecap:butt;stroke-linejoin:miter;stroke-opacity:1"
       d="m 70.114582,47.624999 h -6.614583 v 42.333333 l 6.614584,10e-7 v -27.78125 l 8.995834,5.027084 z"
       id="path1031"
       sodipodi:nodetypes="ccccccc" />
    <path
       style="fill:none;stroke:#000000;stroke-width:0.257601px;stroke-linecap:butt;stroke-linejoin:miter;stroke-opacity:1"
       d="M 70.114582,47.624999 79.375,64.822917"
       id="path1048" />
    <path
       sodipodi:nodetypes="ccccccc"
       id="path1031-8"
       d="m 88.635418,47.624998 h 6.614583 V 89.958332 H 88.635417 V 62.177083 l -8.995834,5.027084 z"
       style="display:inline;fill:none;stroke:#000000;stroke-width:0.264583px;stroke-linecap:butt;stroke-linejoin:miter;stroke-opacity:1" />
    <path
       style="fill:#ff00ff;fill-opacity:1;stroke-width:0.33574"
       d="m 240.70571,260.05278 v -79.40673 l 11.95622,0.0882 11.95623,0.0882 16.36324,35.58842 c 8.99978,19.57364 16.33305,35.62878 16.29616,35.67809 -0.0369,0.0493 -7.37642,-3.99216 -16.31006,-8.98105 -8.93364,-4.98888 -16.35931,-9.07069 -16.50149,-9.07069 -0.14218,0 -0.25851,23.72002 -0.25851,52.71116 v 52.71117 h -11.7509 -11.75089 z"
       id="path1082"
       transform="scale(0.26458333)" />
    <path
       style="fill:#ff00ff;fill-opacity:1;stroke-width:0.33574"
       d="m 240.70561,260.14096 -9e-5,-79.31855 11.83492,0.11178 c 6.50921,0.0615 11.92499,0.21256 12.03506,0.33574 0.18608,0.20824 21.77825,47.17345 28.9634,62.99843 1.75845,3.87291 3.15061,7.08822 3.0937,7.14514 -0.0569,0.0569 -5.44955,-2.86429 -11.98361,-6.49158 -16.3804,-9.09332 -19.68709,-10.88474 -20.09162,-10.88474 -0.24118,0 -0.34987,16.37442 -0.34987,52.71116 v 52.71117 h -11.7509 -11.75089 z"
       id="path1084"
       transform="scale(0.26458333)" />
    <path
       style="fill:#ff5555;fill-opacity:1;stroke-width:0.386402"
       d="m 240.86773,260.01723 v -79.21235 l 11.10905,0.005 c 6.10998,0.003 11.45905,0.0993 11.88682,0.2143 0.56163,0.15094 1.54697,1.8944 3.54571,6.27375 1.52237,3.3356 7.32299,15.97593 12.89026,28.08962 12.55164,27.31079 16.55509,36.12856 16.4031,36.12856 -0.065,0 -5.6558,-3.06374 -12.42392,-6.80831 -17.26292,-9.551 -19.4571,-10.70556 -19.76344,-10.39935 -0.14865,0.1486 -0.31967,23.81658 -0.38005,52.59551 l -0.10978,52.32534 h -11.57887 -11.57888 z"
       id="path1088"
       transform="scale(0.26458333)" />
    <path
       id="path1048-9"
       d="M 88.635418,47.624999 79.375,64.822917"
       style="display:inline;fill:none;stroke:#000000;stroke-width:0.257601px;stroke-linecap:butt;stroke-linejoin:miter;stroke-opacity:1" />
    <path
       style="fill:#ff0000;fill-opacity:1;stroke-width:0.454925"
       d="m 335.70013,286.56948 c 0,-48.43942 -0.0586,-52.57002 -0.74199,-52.30778 -0.40809,0.1566 -7.70173,4.17837 -16.20809,8.93727 -8.50636,4.7589 -15.53555,8.58311 -15.62042,8.49824 -0.0849,-0.0849 7.15401,-16.06063 16.08638,-35.50171 l 16.24068,-35.3474 h 11.94977 11.94976 v 79.15694 79.15694 h -11.82805 -11.82804 z"
       id="path1109"
       transform="scale(0.26458333)" />
    <path
       style="fill:#ff0000;fill-opacity:1;stroke-width:0.454925"
       d="m 241.07574,259.9395 v -79.22249 l 11.39353,0.23397 c 10.4675,0.21496 11.44508,0.30348 12.02773,1.08913 0.72452,0.97694 31.71822,68.47498 31.5242,68.65336 -0.0699,0.0642 -6.97994,-3.64882 -15.35576,-8.25119 -8.37581,-4.60238 -15.45653,-8.36796 -15.73493,-8.36796 -0.71693,0 -1.10698,24.14551 -1.10783,68.57993 l -7e-4,36.50773 h -11.37312 -11.37312 z"
       id="path1111"
       transform="scale(0.26458333)" />
    <path
       style="fill:#ff0000;fill-opacity:1;stroke-width:0.454925"
       d="m 190.57907,338.25213 c -0.50042,-0.50042 -0.90985,-1.13644 -0.90985,-1.41338 0,-0.27694 -4.41919,-13.22229 -9.82042,-28.76745 -5.40123,-15.54515 -11.26109,-32.56591 -13.0219,-37.8239 -3.15402,-9.41826 -3.19397,-9.59706 -2.69474,-12.06206 0.42957,-2.12103 4.80336,-14.90204 23.89684,-69.83098 l 2.372,-6.82388 17.00662,-0.11935 c 9.35364,-0.0656 17.14317,0.0367 17.31007,0.22746 0.16689,0.19075 -6.21772,17.74448 -14.18804,39.0083 -7.97032,21.26381 -14.49148,38.97895 -14.49148,39.36696 0,0.38802 6.55091,18.18797 14.55759,39.55546 8.00668,21.36748 14.5576,39.01708 14.5576,39.22132 0,0.20424 -7.5745,0.37135 -16.83222,0.37135 -16.22566,0 -16.86501,-0.0328 -17.74207,-0.90985 z"
       id="path1113"
       transform="scale(0.26458333)" />
    <path
       style="fill:#ff5555;fill-opacity:1;stroke-width:0.454925"
       d="m 92.322331,337.68347 c 0.243361,-0.56297 6.87537,-18.27245 14.737799,-39.3544 l 14.29532,-38.33082 -10.92906,-29.22554 C 96.65125,193.93644 92.315276,182.17486 92.315276,181.64525 c 0,-0.46186 33.403024,-0.3015 33.866414,0.1626 0.79091,0.79212 27.09353,76.74893 27.09353,78.24082 0,0.74921 -12.50761,37.25683 -23.48071,68.53631 l -3.55092,10.12208 H 109.06172 91.879857 Z"
       id="path1115"
       transform="scale(0.26458333)" />
    <path
       style="fill:#ff5555;fill-opacity:1;stroke-width:0.454925"
       d=""
       id="path1117"
       transform="scale(0.26458333)" />
    <path
       style="fill:#ff5555;fill-opacity:1;stroke-width:0.454925"
       d="m 196.49309,338.76821 c -2.8774,-0.15874 -5.47143,-0.44428 -5.76451,-0.63454 -0.29308,-0.19027 -1.08855,-2.03271 -1.76771,-4.09433 -0.67916,-2.06162 -5.9945,-17.56674 -11.81186,-34.45583 -12.18843,-35.3857 -12.95559,-37.73936 -12.95559,-39.74817 0,-1.60739 4.23511,-14.31486 17.68254,-53.05652 l 8.60592,-24.79341 16.88081,-0.11927 c 10.95923,-0.0774 16.88082,0.0393 16.88082,0.33279 0,0.60887 -5.61699,16.06219 -14.55644,40.04734 -12.9877,34.84684 -13.73329,36.96993 -13.49988,38.44116 0.1191,0.75062 6.4558,18.1515 14.08157,38.66862 7.62577,20.51711 14.00588,37.76445 14.17802,38.32742 0.31174,1.01957 0.29279,1.02359 -4.83559,1.02525 -2.83171,9.1e-4 -8.01459,0.0796 -11.51751,0.17488 -3.50293,0.0953 -8.72319,0.0434 -11.60059,-0.11539 z"
       id="path1119"
       transform="scale(0.26458333)" />
    <path
       style="fill:#ff5555;fill-opacity:1;stroke-width:0.454925"
       d=""
       id="path1121"
       transform="scale(0.26458333)" />
    <path
       style="fill:#ff5555;fill-opacity:1;stroke-width:0.454925"
       d=""
       id="path1123"
       transform="scale(0.26458333)" />
    <path
       style="fill:#ff5555;fill-opacity:1;stroke-width:0.454925"
       d="m 241.07574,259.98795 v -79.17403 l 9.66715,0.26495 c 13.69762,0.3754 13.15133,0.2672 14.41627,2.85537 5.07956,10.39314 30.09507,65.26029 29.9442,65.67735 -0.0655,0.18093 -6.66994,-3.23402 -14.67662,-7.58879 -8.00668,-4.35477 -14.79159,-7.92467 -15.07758,-7.93312 -0.28599,-0.008 -0.68758,0.34289 -0.89242,0.78075 -0.20484,0.43787 -0.4467,24.08259 -0.53747,52.54384 l -0.16504,51.74771 h -11.33925 -11.33924 z"
       id="path1125"
       transform="scale(0.26458333)" />
    <path
       style="fill:#ff5555;fill-opacity:1;stroke-width:0.454925"
       d="m 335.69316,287.1868 c -0.004,-28.97139 -0.18344,-52.25382 -0.4057,-52.60476 -0.31281,-0.49391 -3.70386,1.20364 -15.73458,7.87664 -8.43471,4.67843 -15.42213,8.41995 -15.52759,8.31449 -0.18683,-0.18683 8.19443,-18.74712 23.87239,-52.86539 l 7.7347,-16.83222 11.86192,-0.12129 11.86192,-0.12128 v 79.1645 79.16449 h -11.82805 -11.82804 l -0.007,-51.97518 z"
       id="path1127"
       transform="scale(0.26458333)" />
    <path
       style="fill:#ff5555;fill-opacity:1;stroke-width:0.454925"
       d=""
       id="path1129"
       transform="scale(0.26458333)" />
    <path
       style="fill:#ff5555;fill-opacity:1;stroke-width:0.454925"
       d="m 289.76872,232.04165 c -5.58605,-12.15385 -10.0581,-22.19626 -9.93789,-22.31647 0.1202,-0.1202 4.57498,7.87859 9.8995,17.77509 6.67439,12.40547 9.88733,17.9511 10.34549,17.85667 0.3655,-0.0753 5.1015,-8.37604 10.52443,-18.44603 5.42294,-10.06999 9.91335,-18.14943 9.9787,-17.95431 0.1008,0.301 -18.93692,42.11512 -20.21268,44.39478 -0.34768,0.62128 -2.59192,-3.89148 -10.59755,-21.30973 z"
       id="path1131"
       transform="scale(0.26458333)" />
    <path
       style="fill:#ff8080;fill-opacity:1;stroke-width:0.454925"
       d="m 297.72989,248.29072 c -1.87793,-3.79007 -6.67736,-14.08211 -12.51912,-26.84637 -2.65837,-5.80855 -1.23504,-3.94795 3.1507,4.11864 7.28113,13.39201 11.07336,19.88445 11.61448,19.88445 0.5716,0 4.49335,-6.66754 11.43088,-19.43416 2.47723,-4.55867 4.56129,-8.12304 4.63124,-7.92083 0.07,0.20221 -2.97197,7.10513 -6.75982,15.33983 -3.78785,8.23469 -7.31471,15.94457 -7.83746,17.13307 -0.52275,1.18849 -1.07707,2.16089 -1.23181,2.16089 -0.15474,0 -1.27033,-1.99598 -2.47909,-4.43552 z"
       id="path1133"
       transform="scale(0.26458333)" />
    <path
       style="fill:#ff2a2a;fill-opacity:1;stroke-width:0.626762"
       d="m 196.74684,338.4402 c -4.77929,-0.15796 -5.56271,-0.34466 -6.16445,-1.46903 -0.80529,-1.50468 -23.73709,-68.10675 -25.25493,-73.34923 l -1.02735,-3.54838 2.14561,-6.79319 c 2.55573,-8.09161 8.73666,-26.29902 16.66802,-49.0996 3.1777,-9.13505 6.19463,-17.80787 6.70429,-19.27292 l 0.92665,-2.66374 h 16.55027 c 9.10265,0 16.55027,0.11863 16.55027,0.26362 0,0.33272 -9.19086,25.44355 -17.56748,47.99703 -10.89044,29.32178 -10.87428,29.26847 -9.77314,32.2438 0.51731,1.39781 6.90813,18.75894 14.20181,38.58028 7.29368,19.82134 13.38371,36.23796 13.5334,36.48137 0.29753,0.48382 -18.72626,0.91974 -27.49297,0.62999 z"
       id="path1135"
       transform="scale(0.26458333)" />
    <path
       style="fill:#ff2a2a;fill-opacity:1;stroke-width:0.626762"
       d="m 92.382722,337.83771 c 0.276519,-0.99879 10.741628,-29.12029 23.615808,-63.45963 2.77864,-7.41145 5.05335,-13.86885 5.05492,-14.34977 0.002,-0.48093 -5.38676,-15.28817 -11.97406,-32.905 -6.5873,-17.61682 -13.061375,-35.04995 -14.386834,-38.74029 l -2.409927,-6.7097 4.201957,-0.18468 c 2.311077,-0.10157 9.983834,-0.0437 17.050574,0.12871 l 12.84861,0.31338 1.77734,5.01409 c 0.97754,2.75776 7.09779,20.28829 13.60055,38.95674 l 11.8232,33.94264 -9.73416,28.10677 c -5.35378,15.45872 -11.45845,33.07546 -13.56593,39.1483 l -3.83177,11.04155 -5.04871,0.3931 c -2.77679,0.21621 -10.51092,0.3948 -17.18697,0.39687 -11.259096,0.003 -12.116266,-0.0757 -11.834598,-1.09308 z"
       id="path1137"
       transform="scale(0.26458333)" />
    <path
       style="fill:#ff2a2a;fill-opacity:1;stroke-width:0.626762"
       d="m 241.39455,259.94161 v -78.99294 l 9.24473,0.36655 c 14.35179,0.56905 12.89003,-0.11069 16.56716,7.70396 5.98475,12.71879 26.03888,56.84532 26.49207,58.29237 l 0.45446,1.45112 -2.71896,-1.37034 c -1.49542,-0.75369 -8.02723,-4.19305 -14.51512,-7.64302 -6.5254,-3.46991 -12.02064,-6.02646 -12.29855,-5.72163 -0.47292,0.51873 -1.28617,57.34933 -1.28821,90.02127 l -9.2e-4,14.88559 h -10.96833 -10.96833 z"
       id="path1139"
       transform="scale(0.26458333)" />
    <path
       style="fill:#ff2a2a;fill-opacity:1;stroke-width:0.626762"
       d="m 335.94812,296.78481 c -0.0481,-23.18234 -0.0563,-45.07747 -0.0182,-48.65584 0.0853,-8.00525 -0.48518,-13.86364 -1.34989,-13.86364 -1.13349,0 -20.48116,10.75015 -20.48116,11.37995 0,0.33138 -0.2222,0.46518 -0.49378,0.29733 -0.27158,-0.16784 -2.29651,0.65802 -4.49985,1.83524 -2.20334,1.17723 -4.084,2.06248 -4.17925,1.96723 -0.0953,-0.0952 1.81263,-4.5338 4.23974,-9.86344 2.42711,-5.32964 4.45947,-10.11332 4.51634,-10.6304 0.0569,-0.51708 0.29534,-1.08569 0.52992,-1.26359 0.68158,-0.51688 13.112,-27.76616 13.21887,-28.97766 0.0532,-0.60326 0.27072,-1.09684 0.48335,-1.09684 0.21262,0 2.02759,-3.62869 4.03327,-8.06376 l 3.64668,-8.06377 4.70258,-0.39752 c 2.58642,-0.21863 7.90352,-0.39751 11.81577,-0.39751 h 7.1132 v 78.97197 78.97198 h -11.59509 -11.59509 z"
       id="path1141"
       transform="scale(0.26458333)" />
    <path
       style="fill:#ff5555;fill-opacity:1;stroke-width:0.626762"
       d="m 144.87324,293.36801 c 0,-0.35673 2.54616,-8.03212 5.65812,-17.05642 l 5.65812,-16.40782 -5.67489,-16.37278 c -3.12119,-9.00503 -5.59494,-16.61263 -5.49723,-16.90578 0.0977,-0.29314 2.95528,5.95967 6.35014,13.89514 3.45309,8.0716 6.5253,14.42812 6.97333,14.42812 0.80071,0 5.57074,-10.11233 11.3023,-23.9606 1.67345,-4.04327 3.15853,-7.2355 3.30019,-7.09385 0.14165,0.14166 -2.29378,7.59913 -5.41208,16.57216 -3.11829,8.97302 -5.83668,17.24203 -6.04085,18.37556 -0.28647,1.59038 0.85538,5.62533 5.00076,17.6713 2.95459,8.58568 5.28118,15.88277 5.17018,16.21574 -0.11099,0.33298 -1.98477,-3.5892 -4.16395,-8.71595 -5.68052,-13.36398 -8.31631,-19.03617 -8.84586,-19.03617 -0.93689,0 -1.85513,1.84379 -7.48612,15.03196 -5.70579,13.36336 -6.29216,14.60831 -6.29216,13.35939 z"
       id="path1143"
       transform="scale(0.26458333)" />
    <path
       style="fill:#ff5555;fill-opacity:1;stroke-width:0.626762"
       d=""
       id="path1145"
       transform="scale(0.26458333)" />
    <path
       style="fill:#ff5555;fill-opacity:1;stroke-width:0.626762"
       d=""
       id="path1147"
       transform="scale(0.26458333)" />
    <path
       style="fill:#ff5555;fill-opacity:1;stroke-width:0.626762"
       d=""
       id="path1149"
       transform="scale(0.26458333)" />
    <path
       style="fill:#ff5555;fill-opacity:1;stroke-width:0.626762"
       d=""
       id="path1151"
       transform="scale(0.26458333)" />
    <path
       style="fill:#ff5555;fill-opacity:1;stroke-width:0.626762"
       d=""
       id="path1153"
       transform="scale(0.26458333)" />
    <path
       style="fill:#ff5555;fill-opacity:1;stroke-width:0.626762"
       d=""
       id="path1155"
       transform="scale(0.26458333)" />
    <path
       style="fill:#ff5555;fill-opacity:1;stroke-width:0.626762"
       d=""
       id="path1157"
       transform="scale(0.26458333)" />
    <path
       style="fill:#ff5555;fill-opacity:1;stroke-width:0.626762"
       d=""
       id="path1159"
       transform="scale(0.26458333)" />
    <path
       style="fill:#ff5555;fill-opacity:1;stroke-width:0.251485"
       d="m 299.13687,250.7262 c -1.97608,-3.57978 -14.76184,-31.09189 -14.54853,-31.3052 0.12736,-0.12736 2.10964,3.31767 5.9561,10.35118 6.08307,11.12332 8.85306,15.70237 9.44613,15.61532 0.73528,-0.10791 3.07345,-4.0012 10.78473,-17.95768 2.3167,-4.19295 4.26114,-7.5746 4.32097,-7.51477 0.17142,0.17142 -14.25874,31.97788 -14.71487,32.43402 -0.1319,0.1319 -0.64578,-0.53819 -1.24453,-1.62287 z"
       id="path1161"
       transform="scale(0.26458333)" />
    <path
       style="fill:#d35f5f;fill-opacity:1;stroke-width:0.251485"
       d="m 299.86509,251.67351 c -0.88568,-1.06719 -14.20633,-29.38951 -14.04491,-29.86226 0.038,-0.11137 1.36566,2.14353 2.9503,5.0109 7.97966,14.43903 10.51915,18.66788 11.21033,18.66788 0.6804,0 3.0106,-3.84333 10.79586,-17.80625 1.48876,-2.67011 2.75263,-4.80896 2.80858,-4.753 0.12574,0.12573 -5.12002,11.81128 -12.1192,26.99699 -0.91437,1.98385 -1.17105,2.26374 -1.60096,1.74574 z"
       id="path1163"
       transform="scale(0.26458333)" />
    <path
       style="fill:#ff8080;fill-opacity:1;stroke-width:0.520612"
       d="m 146.66378,288.93204 c 0,-0.30661 2.1954,-6.96393 4.87868,-14.79404 l 4.87868,-14.23656 -4.37162,-12.71434 c -2.40439,-6.99289 -4.29613,-12.94079 -4.20388,-13.21756 0.0923,-0.27678 1.17638,1.81341 2.40914,4.64486 4.31446,9.90951 7.50989,16.34123 8.11874,16.34123 0.71926,0 5.16422,-8.91682 9.1381,-18.33151 1.53631,-3.63976 2.88045,-6.5306 2.98697,-6.42408 0.10652,0.10652 -1.96088,6.55225 -4.59422,14.32384 -4.13693,12.20904 -4.74086,14.42733 -4.44199,16.31571 0.19025,1.20203 2.23081,7.88451 4.53458,14.84994 2.30378,6.96543 4.10209,12.75102 3.99625,12.85685 -0.10584,0.10584 -1.57212,-3.01612 -3.2584,-6.93769 -5.43737,-12.645 -7.52247,-16.86601 -8.21841,-16.6371 -1.02837,0.33825 -2.63967,3.50614 -7.21881,14.19247 -4.32278,10.08807 -4.63381,10.74373 -4.63381,9.76798 z"
       id="path1165"
       transform="scale(0.26458333)" />
    <path
       style="fill:#ff8080;fill-opacity:1;stroke-width:0.520612"
       d=""
       id="path1167"
       transform="scale(0.26458333)" />
    <path
       style="fill:#ff8080;fill-opacity:1;stroke-width:0.520612"
       d="m 300.77275,254.04897 c 0.0179,-0.88585 0.83974,-1.61714 1.41668,-1.26057 0.43235,0.2672 0.31172,0.57106 -0.4042,1.01816 -0.56125,0.3505 -1.01686,0.45959 -1.01248,0.24241 z"
       id="path1169"
       transform="scale(0.26458333)" />
    <path
       style="fill:#ff8080;fill-opacity:1;stroke-width:0.520612"
       d="m 149.26683,282.1752 c 0,-0.3005 1.66036,-5.43104 3.68968,-11.40119 l 3.68968,-10.85482 -3.49668,-10.31041 c -1.92318,-5.67073 -3.38079,-10.42631 -3.23914,-10.56795 0.14164,-0.14165 0.5616,0.51136 0.93323,1.45114 1.94171,4.91019 6.91011,14.46366 7.52199,14.46366 0.72409,0 5.22701,-8.47104 7.82112,-14.71336 0.8046,-1.93611 1.56159,-3.42152 1.68221,-3.3009 0.12062,0.12062 -1.34364,4.98457 -3.2539,10.80877 -2.88481,8.79554 -3.42531,10.98634 -3.19049,12.93222 0.15549,1.28851 1.58648,6.43341 3.17999,11.4331 3.08994,9.69482 3.52833,12.32202 1.07902,6.46648 -1.91139,-4.56956 -5.92387,-12.80644 -6.54518,-13.43605 -0.9682,-0.98114 -2.58973,1.52429 -5.9901,9.25532 -3.53859,8.0453 -3.88143,8.73195 -3.88143,7.77399 z"
       id="path1171"
       transform="scale(0.26458333)" />
    <path
       style="fill:#ff8080;fill-opacity:1;stroke-width:0.24454"
       d=""
       id="path1173"
       transform="scale(0.26458333)" />
    <path
       style="fill:#ff8080;fill-opacity:1;stroke-width:0.24454"
       d=""
       id="path1175"
       transform="scale(0.26458333)" />
    <path
       style="fill:#ff8080;fill-opacity:1;stroke-width:0.24454"
       d=""
       id="path1177"
       transform="scale(0.26458333)" />
    <path
       style="fill:#ff8080;fill-opacity:1;stroke-width:0.24454"
       d="m 299.69629,251.16848 c -1.07865,-1.64623 -12.42308,-25.80016 -12.29628,-26.18056 0.0456,-0.13689 1.54959,2.38371 3.34214,5.60134 4.67267,8.38748 7.47571,13.09393 8.45062,14.18902 l 0.84904,0.95372 0.592,-0.65973 c 0.89212,-0.99421 2.8282,-4.21881 7.23874,-12.05634 5.95961,-10.59025 5.91457,-10.37106 -0.97984,4.76853 -5.69378,12.50311 -6.3782,13.93877 -6.64498,13.93877 -0.10337,0 -0.35152,-0.24964 -0.55144,-0.55475 z"
       id="path1179"
       transform="scale(0.26458333)" />
    <path
       style="fill:#ff8080;fill-opacity:1;stroke-width:0.24454"
       d="m 299.68626,250.90864 c -0.91664,-1.39897 -10.98568,-22.88819 -10.80787,-23.06601 0.0545,-0.0545 1.72142,2.75921 3.70434,6.25262 3.37412,5.94439 5.7774,9.84021 6.95227,11.26994 l 0.50237,0.61135 0.61436,-0.73362 c 0.78889,-0.94203 3.67728,-5.73406 7.33691,-12.17243 1.58838,-2.79442 2.93915,-5.02959 3.00171,-4.96703 0.0626,0.0625 -1.70584,4.10959 -3.92978,8.99341 -5.55357,12.19578 -6.43089,14.05149 -6.73065,14.23675 -0.14296,0.0884 -0.43261,-0.10288 -0.64366,-0.42498 z"
       id="path1181"
       transform="scale(0.26458333)" />
  </g>
</svg>
